{
  "accessors": [
    {
      "bufferView": 1,
      "componentType": 5126,
      "count": 516,
      "max": [
        0.5679868459701538,
        -0.7233648300170898,
        0.28349217772483826
      ],
      "min": [
        -0.5679868459701538,
        -0.936363697052002,
        0.11348742246627808
      ],
      "type": "VEC3"
    },
    {
      "bufferView": 1,
      "byteOffset": 6192,
      "componentType": 5126,
      "count": 516,
      "max": [
        0.9961814284324646,
        0.9958463311195374,
        0.997450053691864
      ],
      "min": [
        -0.9961812496185303,
        -0.9943915009498596,
        -0.9969439506530762
      ],
      "type": "VEC3"
    },
    {
      "bufferView": 2,
      "componentType": 5126,
      "count": 516,
      "max": [
        0.16470588743686676,
        0.1725490242242813,
        0.18039216101169586,
        1.0
      ],
      "min": [
        0.16470588743686676,
        0.1725490242242813,
        0.18039216101169586,
        1.0
      ],
      "type": "VEC4"
    },
    {
      "bufferView": 0,
      "componentType": 5125,
      "count": 3072,
      "type": "SCALAR"
    },
    {
      "bufferView": 1,
      "byteOffset": 12384,
      "componentType": 5126,
      "count": 65532,
      "max": [
        1.352735996246338,
        2.284205675125122,
        1.000003695487976
      ],
      "min": [
        -1.3529881238937378,
        -0.998688817024231,
        -0.9685097336769104
      ],
      "type": "VEC3"
    },
    {
      "bufferView": 1,
      "byteOffset": 798768,
      "componentType": 5126,
      "count": 65532,
      "max": [
        0.99973464012146,
        0.9995513558387756,
        0.9999967217445374
      ],
      "min": [
        -0.9998486638069153,
        -0.9998409152030945,
        -0.9999555349349976
      ],
      "type": "VEC3"
    },
    {
      "bufferView": 2,
      "byteOffset": 8256,
      "componentType": 5126,
      "count": 65532,
      "max": [
        0.9960784316062927,
        0.9960784316062927,
        0.9960784316062927,
        1.0
      ],
      "min": [
        0.16470588743686676,
        0.1725490242242813,
        0.18039216101169586,
        1.0
      ],
      "type": "VEC4"
    },
    {
      "bufferView": 0,
      "byteOffset": 12288,
      "componentType": 5125,
      "count": 382032,
      "type": "SCALAR"
    },
    {
      "bufferView": 1,
      "byteOffset": 1585152,
      "componentType": 5126,
      "count": 4751,
      "max": [
        0.8398267030715942,
        1.9530768394470215,
        0.8736095428466797
      ],
      "min": [
        -0.8287657499313354,
        0.3993225693702698,
        -0.9149927496910095
      ],
      "type": "VEC3"
    },
    {
      "bufferView": 1,
      "byteOffset": 1642164,
      "componentType": 5126,
      "count": 4751,
      "max": [
        0.9998434782028198,
        0.9714315533638,
        0.996547281742096
      ],
      "min": [
        -0.9710783362388611,
        -0.6522693037986755,
        -0.9963451027870178
      ],
      "type": "VEC3"
    },
    {
      "bufferView": 2,
      "byteOffset": 1056768,
      "componentType": 5126,
      "count": 4751,
      "max": [
        0.9960784316062927,
        0.9960784316062927,
        0.9960784316062927,
        1.0
      ],
      "min": [
        0.49803921580314636,
        0.6549019813537598,
        0.9529411792755127,
        1.0
      ],
      "type": "VEC4"
    },
    {
      "bufferView": 0,
      "byteOffset": 1540416,
      "componentType": 5125,
      "count": 12804,
      "type": "SCALAR"
    }
  ],
  "asset": {
    "extras": {
      "author": "Phyllicia (https://sketchfab.com/phyhee)",
      "license": "CC-BY-4.0 (http://creativecommons.org/licenses/by/4.0/)",
      "source": "https://sketchfab.com/3d-models/cute-whale-dd8f5f1428774568beed6867b963fe86",
      "title": "Cute Whale"
    },
    "generator": "Sketchfab-12.68.0",
    "version": "2.0"
  },
  "bufferViews": [
    {
      "buffer": 0,
      "byteLength": 1591632,
      "name": "floatBufferViews",
      "target": 34963
    },
    {
      "buffer": 0,
      "byteLength": 1699176,
      "byteOffset": 1591632,
      "byteStride": 12,
      "name": "floatBufferViews",
      "target": 34962
    },
    {
      "buffer": 0,
      "byteLength": 1132784,
      "byteOffset": 3290808,
      "byteStride": 16,
      "name": "floatBufferViews",
      "target": 34962
    }
  ],
  "buffers": [
    {
      "byteLength": 4423592,
      "uri": "scene.bin"
    }
  ],
  "materials": [
    {
      "doubleSided": true,
      "name": "material_0",
      "pbrMetallicRoughness": {
        "metallicFactor": 0.0,
        "roughnessFactor": 0.23608993899999997
      }
    },
    {
      "doubleSided": true,
      "name": "material_1",
      "pbrMetallicRoughness": {
        "metallicFactor": 0.0,
        "roughnessFactor": 0.12633384150000004
      }
    }
  ],
  "meshes": [
    {
      "name": "Object_0",
      "primitives": [
        {
          "attributes": {
            "COLOR_0": 2,
            "NORMAL": 1,
            "POSITION": 0
          },
          "indices": 3,
          "material": 1,
          "mode": 4
        }
      ]
    },
    {
      "name": "Object_1",
      "primitives": [
        {
          "attributes": {
            "COLOR_0": 6,
            "NORMAL": 5,
            "POSITION": 4
          },
          "indices": 7,
          "material": 0,
          "mode": 4
        }
      ]
    },
    {
      "name": "Object_2",
      "primitives": [
        {
          "attributes": {
            "COLOR_0": 10,
            "NORMAL": 9,
            "POSITION": 8
          },
          "indices": 11,
          "material": 0,
          "mode": 4
        }
      ]
    }
  ],
  "nodes": [
    {
      "children": [
        1
      ],
      "matrix": [
        1.0,
        0.0,
        0.0,
        0.0,
        0.0,
        2.220446049250313e-16,
        -1.0,
        0.0,
        0.0,
        1.0,
        2.220446049250313e-16,
        0.0,
        0.0,
        0.0,
        0.0,
        1.0
      ],
      "name": "Sketchfab_model"
    },
    {
      "children": [
        2,
        4
      ],
      "name": "zbrush_concat.osgb.cleaner.materialmerger.gles"
    },
    {
      "children": [
        3
      ],
      "name": "/sketchfab-data/processing/urls/4af28681a8f546d6a65959a420b8c422/preprocess/SubTool-1-10233600.OBJ"
    },
    {
      "mesh": 0,
      "name": "Object_3"
    },
    {
      "children": [
        5,
        6
      ],
      "name": "/sketchfab-data/processing/urls/4af28681a8f546d6a65959a420b8c422/preprocess/SubTool-0-10233600.OBJ"
    },
    {
      "mesh": 1,
      "name": "Object_5"
    },
    {
      "mesh": 2,
      "name": "Object_6"
    }
  ],
  "scene": 0,
  "scenes": [
    {
      "name": "Sketchfab_Scene",
      "nodes": [
        0
      ]
    }
  ]
}
