{
  "accessors": [
    {
      "bufferView": 2,
      "componentType": 5126,
      "count": 9187,
      "max": [
        0.2389347106218338,
        0.8449134826660156,
        0.2963702976703644
      ],
      "min": [
        -0.22957777976989746,
        0.12154372781515121,
        -0.5001304745674133
      ],
      "type": "VEC3"
    },
    {
      "bufferView": 2,
      "byteOffset": 110244,
      "componentType": 5126,
      "count": 9187,
      "max": [
        0.999686062335968,
        0.9999557733535767,
        0.9994474649429321
      ],
      "min": [
        -0.9998037219047546,
        -0.9999525547027588,
        -0.9997312426567078
      ],
      "type": "VEC3"
    },
    {
      "bufferView": 1,
      "componentType": 5126,
      "count": 9187,
      "max": [
        1.0,
        1.0
      ],
      "min": [
        0.0,
        0.012172579765319824
      ],
      "type": "VEC2"
    },
    {
      "bufferView": 0,
      "componentType": 5125,
      "count": 44496,
      "type": "SCALAR"
    },
    {
      "bufferView": 2,
      "byteOffset": 220488,
      "componentType": 5126,
      "count": 1200,
      "max": [
        0.11079530417919159,
        0.7680647969245911,
        0.2392159253358841
      ],
      "min": [
        -0.1286003291606903,
        0.6852436065673828,
        0.18163883686065674
      ],
      "type": "VEC3"
    },
    {
      "bufferView": 2,
      "byteOffset": 234888,
      "componentType": 5126,
      "count": 1200,
      "max": [
        0.9987044334411621,
        0.9997535347938538,
        0.9979315400123596
      ],
      "min": [
        -0.9987249374389648,
        -0.999727725982666,
        -0.998849630355835
      ],
      "type": "VEC3"
    },
    {
      "bufferView": 1,
      "byteOffset": 73496,
      "componentType": 5126,
      "count": 1200,
      "max": [
        0.9500358700752258,
        0.7363130450248718
      ],
      "min": [
        0.20846253633499146,
        0.049302637577056885
      ],
      "type": "VEC2"
    },
    {
      "bufferView": 0,
      "byteOffset": 177984,
      "componentType": 5125,
      "count": 5760,
      "type": "SCALAR"
    },
    {
      "bufferView": 2,
      "byteOffset": 249288,
      "componentType": 5126,
      "count": 10273,
      "max": [
        0.16188859939575195,
        0.7098180055618286,
        0.4315263330936432
      ],
      "min": [
        -0.16174964606761932,
        -0.002043649088591337,
        -0.08220674842596054
      ],
      "type": "VEC3"
    },
    {
      "bufferView": 2,
      "byteOffset": 372564,
      "componentType": 5126,
      "count": 10273,
      "max": [
        0.9992839694023132,
        0.9999899864196777,
        0.9999539852142334
      ],
      "min": [
        -0.9993193745613098,
        -0.9999970197677612,
        -0.9998997449874878
      ],
      "type": "VEC3"
    },
    {
      "bufferView": 1,
      "byteOffset": 83096,
      "componentType": 5126,
      "count": 10273,
      "max": [
        0.9933609366416931,
        1.0
      ],
      "min": [
        0.0,
        0.002489030361175537
      ],
      "type": "VEC2"
    },
    {
      "bufferView": 0,
      "byteOffset": 201024,
      "componentType": 5125,
      "count": 49002,
      "type": "SCALAR"
    }
  ],
  "asset": {
    "extras": {
      "author": "TadenStar (https://sketchfab.com/tadenstar)",
      "license": "CC-BY-4.0 (http://creativecommons.org/licenses/by/4.0/)",
      "source": "https://sketchfab.com/3d-models/cute-little-duck-7d731ce780534a01b5a11f72f7e93fd2",
      "title": "Cute little Duck"
    },
    "generator": "Sketchfab-14.64.0",
    "version": "2.0"
  },
  "bufferViews": [
    {
      "buffer": 0,
      "byteLength": 397032,
      "name": "floatBufferViews",
      "target": 34963
    },
    {
      "buffer": 0,
      "byteLength": 165280,
      "byteOffset": 397032,
      "byteStride": 8,
      "name": "floatBufferViews",
      "target": 34962
    },
    {
      "buffer": 0,
      "byteLength": 495840,
      "byteOffset": 562312,
      "byteStride": 12,
      "name": "floatBufferViews",
      "target": 34962
    }
  ],
  "buffers": [
    {
      "byteLength": 1058152,
      "uri": "scene.bin"
    }
  ],
  "extensionsUsed": [
    "KHR_materials_clearcoat",
    "KHR_materials_specular"
  ],
  "images": [
    {
      "uri": "textures/OrangSkin_baseColor.png"
    }
  ],
  "materials": [
    {
      "doubleSided": true,
      "extensions": {
        "KHR_materials_clearcoat": {
          "clearcoatFactor": 0.18133388596993819,
          "clearcoatRoughnessFactor": 0.565335056259219
        }
      },
      "name": "DuckYellowBody",
      "pbrMetallicRoughness": {
        "baseColorFactor": [
          0.991102,
          0.897873,
          0.897873,
          1.0
        ],
        "metallicFactor": 0.0,
        "roughnessFactor": 0.6201923663005449
      }
    },
    {
      "doubleSided": true,
      "extensions": {
        "KHR_materials_clearcoat": {
          "clearcoatFactor": 1.0,
          "clearcoatRoughnessFactor": 1.0
        },
        "KHR_materials_specular": {
          "specularColorFactor": [
            1.0,
            1.0,
            1.0
          ],
          "specularFactor": 1.0
        }
      },
      "name": "material",
      "pbrMetallicRoughness": {
        "baseColorFactor": [
          0.00309539,
          0.00309539,
          0.00309539,
          1.0
        ],
        "metallicFactor": 0.0390625,
        "roughnessFactor": 0.14476234594238763
      }
    },
    {
      "doubleSided": true,
      "name": "OrangSkin",
      "pbrMetallicRoughness": {
        "baseColorTexture": {
          "index": 0
        },
        "metallicFactor": 0.0,
        "roughnessFactor": 0.6262876229718033
      }
    }
  ],
  "meshes": [
    {
      "name": "Object_0",
      "primitives": [
        {
          "attributes": {
            "NORMAL": 1,
            "POSITION": 0,
            "TEXCOORD_0": 2
          },
          "indices": 3,
          "material": 0,
          "mode": 4
        }
      ]
    },
    {
      "name": "Object_1",
      "primitives": [
        {
          "attributes": {
            "NORMAL": 5,
            "POSITION": 4,
            "TEXCOORD_0": 6
          },
          "indices": 7,
          "material": 1,
          "mode": 4
        }
      ]
    },
    {
      "name": "Object_2",
      "primitives": [
        {
          "attributes": {
            "NORMAL": 9,
            "POSITION": 8,
            "TEXCOORD_0": 10
          },
          "indices": 11,
          "material": 2,
          "mode": 4
        }
      ]
    }
  ],
  "nodes": [
    {
      "children": [
        1
      ],
      "matrix": [
        0.5,
        0.0,
        0.0,
        0.0,
        0.0,
        1.1102230246251565e-16,
        -0.5,
        0.0,
        0.0,
        0.5,
        1.1102230246251565e-16,
        0.0,
        0.0,
        0.0,
        0.0,
        1.0
      ],
      "name": "Sketchfab_model"
    },
    {
      "children": [
        2
      ],
      "name": "root"
    },
    {
      "children": [
        3
      ],
      "matrix": [
        1.0,
        0.0,
        0.0,
        0.0,
        0.0,
        2.220446049250313e-16,
        1.0,
        0.0,
        0.0,
        -1.0,
        2.220446049250313e-16,
        0.0,
        0.0,
        0.0,
        0.0,
        1.0
      ],
      "name": "GLTF_SceneRootNode"
    },
    {
      "children": [
        4,
        5,
        6
      ],
      "name": "Duck_v2_0"
    },
    {
      "mesh": 0,
      "name": "Object_4"
    },
    {
      "mesh": 1,
      "name": "Object_5"
    },
    {
      "mesh": 2,
      "name": "Object_6"
    }
  ],
  "samplers": [
    {
      "magFilter": 9729,
      "minFilter": 9987,
      "wrapS": 10497,
      "wrapT": 10497
    }
  ],
  "scene": 0,
  "scenes": [
    {
      "name": "Sketchfab_Scene",
      "nodes": [
        0
      ]
    }
  ],
  "textures": [
    {
      "sampler": 0,
      "source": 0
    }
  ]
}
